<mxfile host="app.diagrams.net" modified="2023-10-08T21:31:21.065Z" agent="Mozilla/5.0 (Windows NT 10.0; Win64; x64) AppleWebKit/537.36 (KHTML, like Gecko) Chrome/117.0.0.0 Safari/537.36" etag="vDGEo0dYfk-Y7bIrjQQt" version="22.0.4" type="device">
  <diagram name="Page-1" id="2ca16b54-16f6-2749-3443-fa8db7711227">
    <mxGraphModel dx="2219" dy="630" grid="1" gridSize="10" guides="1" tooltips="1" connect="1" arrows="1" fold="1" page="1" pageScale="1" pageWidth="1169" pageHeight="827" background="none" math="0" shadow="0">
      <root>
        <mxCell id="0" />
        <mxCell id="1" parent="0" />
        <mxCell id="l-9Uv6maz0n6oZ3W3QbO-1" style="edgeStyle=orthogonalEdgeStyle;rounded=0;orthogonalLoop=1;jettySize=auto;html=1;exitX=1;exitY=0.5;exitDx=0;exitDy=0;entryX=0;entryY=0.5;entryDx=0;entryDy=0;endArrow=ERoneToMany;endFill=0;startArrow=ERmandOne;startFill=0;" parent="1" source="2ed32ef02a7f4228-1" target="2ed32ef02a7f4228-4" edge="1">
          <mxGeometry relative="1" as="geometry" />
        </mxCell>
        <mxCell id="2ed32ef02a7f4228-1" value="&lt;div style=&quot;box-sizing:border-box;width:100%;background:#e4e4e4;padding:2px;&quot;&gt;&lt;b&gt;business&lt;/b&gt;&lt;span style=&quot;white-space: pre;&quot;&gt;&#x9;&lt;/span&gt;&lt;span style=&quot;white-space: pre;&quot;&gt;&#x9;&lt;/span&gt;&lt;/div&gt;&lt;table style=&quot;width:100%;font-size:1em;&quot; cellpadding=&quot;2&quot; cellspacing=&quot;0&quot;&gt;&lt;tbody&gt;&lt;tr&gt;&lt;td&gt;PK&lt;/td&gt;&lt;td&gt;business_id&lt;/td&gt;&lt;/tr&gt;&lt;tr&gt;&lt;td&gt;&lt;br&gt;&lt;/td&gt;&lt;td&gt;name&lt;br&gt;description&lt;/td&gt;&lt;/tr&gt;&lt;tr&gt;&lt;td&gt;&lt;/td&gt;&lt;td&gt;street_address&lt;br&gt;county&lt;br&gt;city&lt;br&gt;state&lt;br&gt;contact&lt;br&gt;email_id&lt;br&gt;is_active&lt;/td&gt;&lt;/tr&gt;&lt;/tbody&gt;&lt;/table&gt;" style="verticalAlign=top;align=left;overflow=fill;html=1;rounded=0;shadow=1;comic=0;labelBackgroundColor=none;strokeWidth=1;fontFamily=Verdana;fontSize=12;labelBorderColor=default;direction=east;" parent="1" vertex="1">
          <mxGeometry x="-880" y="200" width="240" height="190" as="geometry" />
        </mxCell>
        <mxCell id="l-9Uv6maz0n6oZ3W3QbO-2" style="edgeStyle=orthogonalEdgeStyle;rounded=0;orthogonalLoop=1;jettySize=auto;html=1;endArrow=ERoneToMany;endFill=0;startArrow=ERmandOne;startFill=0;" parent="1" source="2ed32ef02a7f4228-4" target="eKkuy8thzexpCz7GUMpE-6" edge="1">
          <mxGeometry relative="1" as="geometry" />
        </mxCell>
        <mxCell id="Qs6UIdrCHMbzfMHwe8Ob-3" value="" style="edgeStyle=orthogonalEdgeStyle;rounded=0;orthogonalLoop=1;jettySize=auto;html=1;endArrow=ERmandOne;endFill=0;startArrow=ERzeroToMany;startFill=0;" parent="1" source="2ed32ef02a7f4228-4" target="Qs6UIdrCHMbzfMHwe8Ob-2" edge="1">
          <mxGeometry relative="1" as="geometry" />
        </mxCell>
        <mxCell id="Qs6UIdrCHMbzfMHwe8Ob-4" style="edgeStyle=orthogonalEdgeStyle;rounded=0;orthogonalLoop=1;jettySize=auto;html=1;" parent="1" source="2ed32ef02a7f4228-4" edge="1">
          <mxGeometry relative="1" as="geometry">
            <mxPoint x="-470" y="430" as="targetPoint" />
          </mxGeometry>
        </mxCell>
        <mxCell id="2ed32ef02a7f4228-4" value="&lt;div style=&quot;box-sizing: border-box ; width: 100% ; background: #e4e4e4 ; padding: 2px&quot;&gt;&lt;b&gt;employee&lt;/b&gt;&lt;/div&gt;&lt;table style=&quot;width: 100% ; font-size: 1em&quot; cellpadding=&quot;2&quot; cellspacing=&quot;0&quot;&gt;&lt;tbody&gt;&lt;tr&gt;&lt;td&gt;PK&lt;/td&gt;&lt;td&gt;employee_id&lt;/td&gt;&lt;/tr&gt;&lt;tr&gt;&lt;td&gt;&lt;br&gt;&lt;/td&gt;&lt;td&gt;first_name&lt;br&gt;&lt;/td&gt;&lt;/tr&gt;&lt;tr&gt;&lt;td&gt;&lt;/td&gt;&lt;td&gt;last_name&lt;br&gt;years_experience&lt;br&gt;email_id&lt;/td&gt;&lt;/tr&gt;&lt;tr&gt;&lt;td&gt;&lt;br&gt;&lt;br&gt;FK1&amp;nbsp;&lt;br&gt;FK2&lt;/td&gt;&lt;td&gt;contact&lt;br&gt;is_active&lt;br&gt;date_of_hire&lt;br&gt;business_id&lt;br&gt;employee_type_id&lt;br&gt;&lt;br&gt;&lt;/td&gt;&lt;/tr&gt;&lt;/tbody&gt;&lt;/table&gt;" style="verticalAlign=top;align=left;overflow=fill;html=1;rounded=0;shadow=1;comic=0;labelBackgroundColor=none;strokeWidth=1;fontFamily=Verdana;fontSize=12;labelBorderColor=default;direction=east;" parent="1" vertex="1">
          <mxGeometry x="-560" y="310" width="180" height="210" as="geometry" />
        </mxCell>
        <mxCell id="eKkuy8thzexpCz7GUMpE-19" style="edgeStyle=orthogonalEdgeStyle;rounded=0;orthogonalLoop=1;jettySize=auto;html=1;startArrow=ERmandOne;startFill=0;endArrow=ERoneToMany;endFill=0;labelBackgroundColor=none;fontColor=default;shadow=0;labelBorderColor=default;entryX=0;entryY=0.467;entryDx=0;entryDy=0;entryPerimeter=0;" parent="1" source="2ed32ef02a7f4228-5" target="eKkuy8thzexpCz7GUMpE-6" edge="1">
          <mxGeometry relative="1" as="geometry" />
        </mxCell>
        <mxCell id="2ed32ef02a7f4228-5" value="&lt;div style=&quot;box-sizing:border-box;width:100%;background:#e4e4e4;padding:2px;&quot;&gt;&lt;b&gt;services_offerred&lt;/b&gt;&lt;/div&gt;&lt;table style=&quot;width:100%;font-size:1em;&quot; cellpadding=&quot;2&quot; cellspacing=&quot;0&quot;&gt;&lt;tbody&gt;&lt;tr&gt;&lt;td&gt;PK&lt;span style=&quot;white-space: pre;&quot;&gt;&#x9;&lt;span style=&quot;white-space: pre;&quot;&gt;&#x9;&lt;/span&gt;&lt;/span&gt;services_offered_id&lt;br&gt;&lt;span style=&quot;white-space: pre;&quot;&gt;&#x9;&lt;span style=&quot;white-space: pre;&quot;&gt;&#x9;&lt;/span&gt;&lt;/span&gt;name&lt;br&gt;&amp;nbsp; &amp;nbsp; &amp;nbsp; &amp;nbsp; &lt;span style=&quot;white-space: pre;&quot;&gt;&#x9;&lt;/span&gt;description&lt;br&gt;&amp;nbsp;&amp;nbsp;&lt;span style=&quot;white-space: pre;&quot;&gt;&#x9;&lt;/span&gt;&lt;span style=&quot;white-space: pre;&quot;&gt;&#x9;&lt;/span&gt;price&lt;br&gt;UK1,FK&lt;span style=&quot;white-space: pre;&quot;&gt;&#x9;&lt;/span&gt;business_id&lt;br&gt;&lt;/td&gt;&lt;td&gt;&lt;br&gt;&lt;/td&gt;&lt;/tr&gt;&lt;tr&gt;&lt;td&gt;UK1,FK&amp;nbsp; &amp;nbsp; &lt;span style=&quot;white-space: pre;&quot;&gt;&#x9;&lt;/span&gt;service_level_id&lt;/td&gt;&lt;td&gt;&lt;br&gt;&lt;/td&gt;&lt;/tr&gt;&lt;tr&gt;&lt;td&gt;&lt;/td&gt;&lt;td&gt;&lt;br&gt;&lt;/td&gt;&lt;/tr&gt;&lt;/tbody&gt;&lt;/table&gt;" style="verticalAlign=top;align=left;overflow=fill;html=1;rounded=0;shadow=1;comic=0;labelBackgroundColor=none;strokeWidth=1;fontFamily=Verdana;fontSize=12;labelBorderColor=default;direction=east;" parent="1" vertex="1">
          <mxGeometry x="-880" y="506.25" width="240" height="133.75" as="geometry" />
        </mxCell>
        <mxCell id="eKkuy8thzexpCz7GUMpE-24" style="edgeStyle=orthogonalEdgeStyle;rounded=0;orthogonalLoop=1;jettySize=auto;html=1;endArrow=ERoneToMany;endFill=0;startArrow=ERmandOne;startFill=0;labelBackgroundColor=none;fontColor=default;shadow=0;labelBorderColor=default;entryX=0.994;entryY=0.444;entryDx=0;entryDy=0;entryPerimeter=0;" parent="1" source="2ed32ef02a7f4228-6" target="eKkuy8thzexpCz7GUMpE-6" edge="1">
          <mxGeometry relative="1" as="geometry" />
        </mxCell>
        <mxCell id="fyXYT1DVrHW8H-lK9_EW-12" style="edgeStyle=orthogonalEdgeStyle;rounded=0;orthogonalLoop=1;jettySize=auto;html=1;entryX=0.5;entryY=0;entryDx=0;entryDy=0;endArrow=ERmandOne;endFill=0;startArrow=ERoneToMany;startFill=0;" parent="1" source="2ed32ef02a7f4228-6" target="fyXYT1DVrHW8H-lK9_EW-6" edge="1">
          <mxGeometry relative="1" as="geometry">
            <Array as="points">
              <mxPoint x="-230" y="660" />
              <mxPoint x="-230" y="660" />
            </Array>
          </mxGeometry>
        </mxCell>
        <mxCell id="2ed32ef02a7f4228-6" value="&lt;div style=&quot;box-sizing: border-box ; width: 100% ; background: #e4e4e4 ; padding: 2px&quot;&gt;&lt;b&gt;students&lt;/b&gt;&lt;/div&gt;&lt;table style=&quot;width: 100% ; font-size: 1em&quot; cellpadding=&quot;2&quot; cellspacing=&quot;0&quot;&gt;&lt;tbody&gt;&lt;tr&gt;&lt;td&gt;PK&lt;/td&gt;&lt;td&gt;student_id&lt;/td&gt;&lt;/tr&gt;&lt;tr&gt;&lt;td&gt;&lt;br&gt;&lt;/td&gt;&lt;td&gt;first_name&lt;/td&gt;&lt;/tr&gt;&lt;tr&gt;&lt;td&gt;&lt;/td&gt;&lt;td&gt;last_name&lt;/td&gt;&lt;/tr&gt;&lt;tr&gt;&lt;td&gt;&lt;br&gt;&lt;/td&gt;&lt;td&gt;date_of_birth&lt;br&gt;start_date&lt;/td&gt;&lt;/tr&gt;&lt;tr&gt;&lt;td&gt;FK1&lt;br&gt;&lt;/td&gt;&lt;td&gt;customer_id&lt;br&gt;&lt;/td&gt;&lt;/tr&gt;&lt;tr&gt;&lt;td&gt;FK2&lt;br&gt;&lt;/td&gt;&lt;td&gt;batch_id&lt;br&gt;&lt;/td&gt;&lt;/tr&gt;&lt;tr&gt;&lt;td&gt;FK3&lt;/td&gt;&lt;td&gt;membership_type_id&lt;/td&gt;&lt;/tr&gt;&lt;tr&gt;&lt;td&gt;&lt;br&gt;&lt;/td&gt;&lt;td&gt;&lt;br&gt;&lt;/td&gt;&lt;/tr&gt;&lt;tr&gt;&lt;td&gt;&lt;br&gt;&lt;/td&gt;&lt;td&gt;&lt;br&gt;&lt;/td&gt;&lt;/tr&gt;&lt;/tbody&gt;&lt;/table&gt;" style="verticalAlign=top;align=left;overflow=fill;html=1;rounded=0;shadow=1;comic=0;labelBackgroundColor=none;strokeWidth=1;fontFamily=Verdana;fontSize=12;labelBorderColor=default;direction=east;" parent="1" vertex="1">
          <mxGeometry x="-320" y="450" width="180" height="190" as="geometry" />
        </mxCell>
        <mxCell id="eKkuy8thzexpCz7GUMpE-25" style="edgeStyle=orthogonalEdgeStyle;rounded=0;orthogonalLoop=1;jettySize=auto;html=1;endArrow=ERoneToMany;endFill=0;startArrow=ERmandOne;startFill=0;labelBackgroundColor=none;fontColor=default;shadow=0;labelBorderColor=default;entryX=0.5;entryY=0;entryDx=0;entryDy=0;exitX=0.5;exitY=1;exitDx=0;exitDy=0;" parent="1" source="fyXYT1DVrHW8H-lK9_EW-7" target="2ed32ef02a7f4228-6" edge="1">
          <mxGeometry relative="1" as="geometry">
            <mxPoint x="-230" y="370" as="sourcePoint" />
          </mxGeometry>
        </mxCell>
        <mxCell id="2ed32ef02a7f4228-13" value="" style="edgeStyle=orthogonalEdgeStyle;html=1;endArrow=ERoneToMany;startArrow=ERmandOne;labelBackgroundColor=none;fontFamily=Verdana;fontSize=12;align=left;exitX=0.5;exitY=1;entryX=0.5;entryY=0;rounded=0;fontColor=default;shadow=0;labelBorderColor=default;exitDx=0;exitDy=0;entryDx=0;entryDy=0;" parent="1" source="2ed32ef02a7f4228-1" target="2ed32ef02a7f4228-5" edge="1">
          <mxGeometry width="100" height="100" relative="1" as="geometry">
            <mxPoint x="-504" y="574" as="sourcePoint" />
            <mxPoint x="-404" y="474" as="targetPoint" />
          </mxGeometry>
        </mxCell>
        <mxCell id="eKkuy8thzexpCz7GUMpE-16" style="edgeStyle=orthogonalEdgeStyle;rounded=0;orthogonalLoop=1;jettySize=auto;html=1;exitX=0.5;exitY=0;exitDx=0;exitDy=0;entryX=0.5;entryY=1;entryDx=0;entryDy=0;endArrow=ERmandOne;endFill=0;startArrow=ERoneToMany;startFill=0;labelBackgroundColor=none;fontColor=default;shadow=0;labelBorderColor=default;" parent="1" source="eKkuy8thzexpCz7GUMpE-2" target="eKkuy8thzexpCz7GUMpE-3" edge="1">
          <mxGeometry relative="1" as="geometry" />
        </mxCell>
        <mxCell id="plIM3IQ9e00db4nmOPvU-10" style="edgeStyle=orthogonalEdgeStyle;rounded=0;orthogonalLoop=1;jettySize=auto;html=1;entryX=0.5;entryY=0;entryDx=0;entryDy=0;endArrow=ERoneToMany;endFill=0;startArrow=ERmandOne;startFill=0;" edge="1" parent="1" source="eKkuy8thzexpCz7GUMpE-2" target="eKkuy8thzexpCz7GUMpE-14">
          <mxGeometry relative="1" as="geometry" />
        </mxCell>
        <mxCell id="eKkuy8thzexpCz7GUMpE-2" value="&lt;div style=&quot;box-sizing: border-box ; width: 100% ; background: #e4e4e4 ; padding: 2px&quot;&gt;&lt;b&gt;services&lt;/b&gt;&lt;/div&gt;&lt;table style=&quot;width: 100% ; font-size: 1em&quot; cellpadding=&quot;2&quot; cellspacing=&quot;0&quot;&gt;&lt;tbody&gt;&lt;tr&gt;&lt;td&gt;PK&lt;/td&gt;&lt;td&gt;service_id&lt;/td&gt;&lt;/tr&gt;&lt;tr&gt;&lt;td&gt;&lt;br&gt;&lt;/td&gt;&lt;td&gt;name&lt;br&gt;description&lt;/td&gt;&lt;/tr&gt;&lt;tr&gt;&lt;td&gt;FK1&lt;/td&gt;&lt;td&gt;category_id&lt;/td&gt;&lt;/tr&gt;&lt;tr&gt;&lt;td&gt;&lt;br&gt;&lt;/td&gt;&lt;td&gt;&lt;br&gt;&lt;/td&gt;&lt;/tr&gt;&lt;tr&gt;&lt;td&gt;&lt;br&gt;&lt;/td&gt;&lt;td&gt;&lt;br&gt;&lt;/td&gt;&lt;/tr&gt;&lt;tr&gt;&lt;td&gt;&lt;br&gt;&lt;/td&gt;&lt;td&gt;&lt;br&gt;&lt;/td&gt;&lt;/tr&gt;&lt;/tbody&gt;&lt;/table&gt;" style="verticalAlign=top;align=left;overflow=fill;html=1;rounded=0;shadow=1;comic=0;labelBackgroundColor=none;strokeWidth=1;fontFamily=Verdana;fontSize=12;labelBorderColor=default;direction=east;" parent="1" vertex="1">
          <mxGeometry x="-1120" y="330" width="160" height="90" as="geometry" />
        </mxCell>
        <mxCell id="eKkuy8thzexpCz7GUMpE-3" value="&lt;div style=&quot;box-sizing: border-box ; width: 100% ; background: #e4e4e4 ; padding: 2px&quot;&gt;&lt;b&gt;service_category&lt;/b&gt;&lt;/div&gt;&lt;table style=&quot;width: 100% ; font-size: 1em&quot; cellpadding=&quot;2&quot; cellspacing=&quot;0&quot;&gt;&lt;tbody&gt;&lt;tr&gt;&lt;td&gt;PK&lt;/td&gt;&lt;td&gt;category_id&lt;/td&gt;&lt;/tr&gt;&lt;tr&gt;&lt;td&gt;&lt;br&gt;&lt;/td&gt;&lt;td&gt;name&lt;br&gt;description&lt;/td&gt;&lt;/tr&gt;&lt;tr&gt;&lt;td&gt;&lt;/td&gt;&lt;td&gt;&lt;br&gt;&lt;/td&gt;&lt;/tr&gt;&lt;tr&gt;&lt;td&gt;&lt;br&gt;&lt;/td&gt;&lt;td&gt;&lt;br&gt;&lt;/td&gt;&lt;/tr&gt;&lt;tr&gt;&lt;td&gt;&lt;br&gt;&lt;/td&gt;&lt;td&gt;&lt;br&gt;&lt;/td&gt;&lt;/tr&gt;&lt;tr&gt;&lt;td&gt;&lt;br&gt;&lt;/td&gt;&lt;td&gt;&lt;br&gt;&lt;/td&gt;&lt;/tr&gt;&lt;/tbody&gt;&lt;/table&gt;" style="verticalAlign=top;align=left;overflow=fill;html=1;rounded=0;shadow=1;comic=0;labelBackgroundColor=none;strokeWidth=1;fontFamily=Verdana;fontSize=12;labelBorderColor=default;direction=east;" parent="1" vertex="1">
          <mxGeometry x="-1120" y="140" width="160" height="80" as="geometry" />
        </mxCell>
        <mxCell id="l-9Uv6maz0n6oZ3W3QbO-4" style="edgeStyle=orthogonalEdgeStyle;rounded=0;orthogonalLoop=1;jettySize=auto;html=1;entryX=1;entryY=0.5;entryDx=0;entryDy=0;endArrow=ERoneToMany;endFill=0;startArrow=ERmandOne;startFill=0;" parent="1" source="2ed32ef02a7f4228-5" target="eKkuy8thzexpCz7GUMpE-14" edge="1">
          <mxGeometry relative="1" as="geometry">
            <Array as="points" />
          </mxGeometry>
        </mxCell>
        <mxCell id="eKkuy8thzexpCz7GUMpE-6" value="&lt;div style=&quot;box-sizing: border-box ; width: 100% ; background: #e4e4e4 ; padding: 2px&quot;&gt;&lt;b&gt;batches&lt;/b&gt;&lt;/div&gt;&lt;table style=&quot;width: 100% ; font-size: 1em&quot; cellpadding=&quot;2&quot; cellspacing=&quot;0&quot;&gt;&lt;tbody&gt;&lt;tr&gt;&lt;td&gt;PK&lt;/td&gt;&lt;td&gt;batch_id&lt;/td&gt;&lt;/tr&gt;&lt;tr&gt;&lt;td&gt;&lt;br&gt;&lt;/td&gt;&lt;td&gt;batch_name&lt;br&gt;&lt;/td&gt;&lt;/tr&gt;&lt;tr&gt;&lt;td&gt;&lt;/td&gt;&lt;td&gt;total_students&lt;br&gt;start_date&lt;br&gt;end_date&lt;/td&gt;&lt;/tr&gt;&lt;tr&gt;&lt;td&gt;FK1&lt;br&gt;&lt;/td&gt;&lt;td&gt;services_offerred_id&lt;br&gt;&lt;/td&gt;&lt;/tr&gt;&lt;tr&gt;&lt;td&gt;FK2&lt;br&gt;&lt;/td&gt;&lt;td&gt;instructor_id&lt;br&gt;&lt;/td&gt;&lt;/tr&gt;&lt;tr&gt;&lt;td&gt;&lt;br&gt;&lt;/td&gt;&lt;td&gt;&lt;br&gt;&lt;/td&gt;&lt;/tr&gt;&lt;/tbody&gt;&lt;/table&gt;" style="verticalAlign=top;align=left;overflow=fill;html=1;rounded=0;shadow=1;comic=0;labelBackgroundColor=none;strokeWidth=1;fontFamily=Verdana;fontSize=12;labelBorderColor=default;direction=east;" parent="1" vertex="1">
          <mxGeometry x="-560" y="560" width="180" height="180" as="geometry" />
        </mxCell>
        <mxCell id="eKkuy8thzexpCz7GUMpE-14" value="&lt;div style=&quot;box-sizing:border-box;width:100%;background:#e4e4e4;padding:2px;&quot;&gt;&lt;b&gt;service_levels&lt;/b&gt;&lt;/div&gt;&lt;table style=&quot;width:100%;font-size:1em;&quot; cellpadding=&quot;2&quot; cellspacing=&quot;0&quot;&gt;&lt;tbody&gt;&lt;tr&gt;&lt;td&gt;PK&lt;/td&gt;&lt;td&gt;service_level_id&lt;/td&gt;&lt;/tr&gt;&lt;tr&gt;&lt;td&gt;&lt;br&gt;FK&lt;/td&gt;&lt;td&gt;name&lt;br&gt;description&lt;br&gt;service_id&lt;br&gt;&lt;br&gt;&lt;/td&gt;&lt;/tr&gt;&lt;tr&gt;&lt;td&gt;&lt;/td&gt;&lt;td&gt;&lt;br&gt;&lt;/td&gt;&lt;/tr&gt;&lt;/tbody&gt;&lt;/table&gt;" style="verticalAlign=top;align=left;overflow=fill;html=1;rounded=0;shadow=1;comic=0;labelBackgroundColor=none;strokeWidth=1;fontFamily=Verdana;fontSize=12;labelBorderColor=default;direction=east;" parent="1" vertex="1">
          <mxGeometry x="-1130" y="517.5" width="180" height="102.5" as="geometry" />
        </mxCell>
        <mxCell id="5WKN-ax_HnX2hqTFPknS-2" value="&lt;font style=&quot;font-size: 24px;&quot; face=&quot;Times New Roman&quot;&gt;&lt;b&gt;Business Management Solution - ER Diagram&lt;/b&gt;&lt;/font&gt;" style="text;html=1;strokeColor=none;fillColor=none;align=center;verticalAlign=middle;whiteSpace=wrap;rounded=0;" parent="1" vertex="1">
          <mxGeometry x="-839" y="40" width="509" height="90" as="geometry" />
        </mxCell>
        <mxCell id="fyXYT1DVrHW8H-lK9_EW-6" value="&lt;div style=&quot;box-sizing: border-box ; width: 100% ; background: #e4e4e4 ; padding: 2px&quot;&gt;&lt;b&gt;membership_type&lt;/b&gt;&lt;/div&gt;&lt;table style=&quot;width: 100% ; font-size: 1em&quot; cellpadding=&quot;2&quot; cellspacing=&quot;0&quot;&gt;&lt;tbody&gt;&lt;tr&gt;&lt;td&gt;PK&lt;/td&gt;&lt;td&gt;membership_type_id&lt;/td&gt;&lt;/tr&gt;&lt;tr&gt;&lt;td&gt;&lt;br&gt;&lt;/td&gt;&lt;td&gt;membership_name&lt;/td&gt;&lt;/tr&gt;&lt;tr&gt;&lt;td&gt;&lt;/td&gt;&lt;td&gt;description&lt;br&gt;discount_per&lt;/td&gt;&lt;/tr&gt;&lt;tr&gt;&lt;td&gt;&lt;br&gt;&lt;/td&gt;&lt;td&gt;&lt;br&gt;&lt;/td&gt;&lt;/tr&gt;&lt;tr&gt;&lt;td&gt;&lt;br&gt;&lt;/td&gt;&lt;td&gt;&lt;br&gt;&lt;/td&gt;&lt;/tr&gt;&lt;tr&gt;&lt;td&gt;&lt;br&gt;&lt;/td&gt;&lt;td&gt;&lt;br&gt;&lt;/td&gt;&lt;/tr&gt;&lt;tr&gt;&lt;td&gt;&lt;br&gt;&lt;/td&gt;&lt;td&gt;&lt;/td&gt;&lt;/tr&gt;&lt;tr&gt;&lt;td&gt;&lt;br&gt;&lt;/td&gt;&lt;td&gt;&lt;br&gt;&lt;/td&gt;&lt;/tr&gt;&lt;tr&gt;&lt;td&gt;&lt;br&gt;&lt;/td&gt;&lt;td&gt;&lt;br&gt;&lt;/td&gt;&lt;/tr&gt;&lt;/tbody&gt;&lt;/table&gt;" style="verticalAlign=top;align=left;overflow=fill;html=1;rounded=0;shadow=1;comic=0;labelBackgroundColor=none;strokeWidth=1;fontFamily=Verdana;fontSize=12;labelBorderColor=default;direction=east;" parent="1" vertex="1">
          <mxGeometry x="-320" y="700" width="180" height="100" as="geometry" />
        </mxCell>
        <mxCell id="fyXYT1DVrHW8H-lK9_EW-7" value="&lt;div style=&quot;box-sizing: border-box ; width: 100% ; background: #e4e4e4 ; padding: 2px&quot;&gt;&lt;b&gt;customer&lt;/b&gt;&lt;/div&gt;&lt;table style=&quot;width: 100% ; font-size: 1em&quot; cellpadding=&quot;2&quot; cellspacing=&quot;0&quot;&gt;&lt;tbody&gt;&lt;tr&gt;&lt;td&gt;PK&lt;/td&gt;&lt;td&gt;customer_id&lt;/td&gt;&lt;/tr&gt;&lt;tr&gt;&lt;td&gt;&lt;br&gt;&lt;/td&gt;&lt;td&gt;first_name&lt;br&gt;last_name&lt;br&gt;contact&lt;br&gt;&lt;/td&gt;&lt;/tr&gt;&lt;tr&gt;&lt;td&gt;&lt;br&gt;&lt;/td&gt;&lt;td&gt;street_address&lt;br style=&quot;border-color: var(--border-color);&quot;&gt;county&lt;br style=&quot;border-color: var(--border-color);&quot;&gt;city&lt;br style=&quot;border-color: var(--border-color);&quot;&gt;state&lt;br&gt;email_id&lt;/td&gt;&lt;/tr&gt;&lt;tr&gt;&lt;td&gt;&lt;br&gt;&lt;/td&gt;&lt;td&gt;source&lt;/td&gt;&lt;/tr&gt;&lt;tr&gt;&lt;td&gt;&lt;br&gt;&lt;/td&gt;&lt;td&gt;registration_date&lt;/td&gt;&lt;/tr&gt;&lt;tr&gt;&lt;td&gt;&lt;br&gt;&lt;/td&gt;&lt;td&gt;&lt;/td&gt;&lt;/tr&gt;&lt;tr&gt;&lt;td&gt;&lt;br&gt;&lt;/td&gt;&lt;td&gt;&lt;br&gt;&lt;/td&gt;&lt;/tr&gt;&lt;tr&gt;&lt;td&gt;&lt;br&gt;&lt;/td&gt;&lt;td&gt;&lt;br&gt;&lt;/td&gt;&lt;/tr&gt;&lt;/tbody&gt;&lt;/table&gt;" style="verticalAlign=top;align=left;overflow=fill;html=1;rounded=0;shadow=1;comic=0;labelBackgroundColor=none;strokeWidth=1;fontFamily=Verdana;fontSize=12;labelBorderColor=default;direction=east;" parent="1" vertex="1">
          <mxGeometry x="-320" y="140" width="180" height="222" as="geometry" />
        </mxCell>
        <mxCell id="plIM3IQ9e00db4nmOPvU-14" style="edgeStyle=orthogonalEdgeStyle;rounded=0;orthogonalLoop=1;jettySize=auto;html=1;" edge="1" parent="1" source="Qs6UIdrCHMbzfMHwe8Ob-2">
          <mxGeometry relative="1" as="geometry">
            <mxPoint x="-470" y="240" as="targetPoint" />
          </mxGeometry>
        </mxCell>
        <mxCell id="Qs6UIdrCHMbzfMHwe8Ob-2" value="&lt;div style=&quot;box-sizing:border-box;width:100%;background:#e4e4e4;padding:2px;&quot;&gt;&lt;b&gt;employee_type&lt;/b&gt;&lt;/div&gt;&lt;table style=&quot;width:100%;font-size:1em;&quot; cellpadding=&quot;2&quot; cellspacing=&quot;0&quot;&gt;&lt;tbody&gt;&lt;tr&gt;&lt;td&gt;PK&lt;/td&gt;&lt;td&gt;employee_type_id&lt;/td&gt;&lt;/tr&gt;&lt;tr&gt;&lt;td&gt;&lt;br&gt;&lt;/td&gt;&lt;td&gt;employee_type&lt;br&gt;description&lt;br&gt;is_fulltime&lt;br&gt;is_active&lt;/td&gt;&lt;/tr&gt;&lt;tr&gt;&lt;td&gt;&lt;/td&gt;&lt;td&gt;&lt;br&gt;&lt;/td&gt;&lt;/tr&gt;&lt;/tbody&gt;&lt;/table&gt;" style="verticalAlign=top;align=left;overflow=fill;html=1;rounded=0;shadow=1;comic=0;labelBackgroundColor=none;strokeWidth=1;fontFamily=Verdana;fontSize=12;labelBorderColor=default;direction=east;" parent="1" vertex="1">
          <mxGeometry x="-560" y="140" width="180" height="100" as="geometry" />
        </mxCell>
      </root>
    </mxGraphModel>
  </diagram>
</mxfile>
